<svg width="500" height="487" viewBox="0 0 500 487" fill="none" xmlns="http://www.w3.org/2000/svg">
<path d="M499.366 334.601C499.155 335.446 497.676 339.037 494.93 345.374C492.184 351.711 487.537 359.527 480.989 368.821C474.651 378.116 466.202 388.361 455.64 399.556C445.078 410.752 431.77 421.736 415.716 432.51C399.662 443.071 380.651 452.788 358.682 461.66C336.713 470.321 311.259 476.975 282.319 481.622C262.886 484.791 242.501 486.375 221.166 486.375C203.422 486.375 185.572 485.108 167.617 482.573C149.873 480.249 132.763 476.447 116.286 471.166C100.021 466.096 84.812 459.548 70.6591 451.521C56.5061 443.494 44.1487 433.988 33.5868 423.004C23.2362 412.019 14.9979 399.451 8.87199 385.298C2.95733 370.934 0 354.985 0 337.452C0 306.401 8.55513 279.679 25.6654 257.288C42.9869 234.896 68.5467 217.469 102.345 205.006C90.3042 193.811 81.3266 181.453 75.4119 167.934C69.4973 154.415 66.5399 140.368 66.5399 125.792C66.5399 107.626 70.6591 90.8323 78.8973 75.4119C87.3469 59.9915 98.9649 46.6836 113.752 35.488C128.538 24.2924 146.071 15.6316 166.35 9.5057C186.84 3.16857 209.231 0 233.523 0C258.027 0 279.362 2.32362 297.529 6.97085C315.906 11.6181 331.538 17.4271 344.423 24.398C357.52 31.3688 368.188 38.9734 376.426 47.2117C384.875 55.4499 391.529 63.1601 396.388 70.3422C401.246 77.5243 404.626 83.6502 406.527 88.7199C408.428 93.5784 409.485 96.3245 409.696 96.9582C409.907 97.8031 410.013 98.9649 410.013 100.444C410.013 103.401 408.851 106.147 406.527 108.682C404.415 111.005 401.563 112.167 397.972 112.167C395.437 112.167 393.114 111.428 391.001 109.949C389.1 108.259 387.727 106.041 386.882 103.295C386.882 102.873 386.037 100.655 384.347 96.6413C382.657 92.4166 379.7 87.3469 375.475 81.4322C371.251 75.5175 365.441 69.286 358.048 62.7376C350.866 55.978 341.572 49.7465 330.165 44.0431C318.758 38.1284 305.133 33.27 289.29 29.4677C273.447 25.6654 254.858 23.7643 233.523 23.7643C209.02 23.7643 187.685 26.8272 169.518 32.9531C151.563 39.079 136.671 47.106 124.842 57.0342C113.223 66.7512 104.563 77.6299 98.8593 89.6705C93.1559 101.711 90.3042 113.54 90.3042 125.158C90.3042 138.889 93.684 151.986 100.444 164.449C107.203 176.912 116.92 187.579 129.594 196.451C141.001 193.494 152.197 191.17 163.181 189.48C174.166 187.79 184.516 186.523 194.233 185.678C203.95 184.622 212.717 183.988 220.532 183.777C228.559 183.354 235.108 183.143 240.177 183.143C249.472 183.143 258.027 183.883 265.843 185.361C273.659 186.629 280.313 188.635 285.805 191.381C291.508 193.916 295.944 197.296 299.113 201.521C302.281 205.534 303.866 210.182 303.866 215.463C303.866 220.744 302.281 225.496 299.113 229.721C295.944 233.946 291.508 237.537 285.805 240.494C280.313 243.452 273.659 245.775 265.843 247.465C258.027 248.944 249.472 249.683 240.177 249.683C230.038 249.683 219.793 249.049 209.442 247.782C199.092 246.515 188.952 244.719 179.024 242.395C169.307 240.072 159.907 237.22 150.824 233.84C141.741 230.249 133.502 226.236 126.109 221.8C92.5222 231.939 67.068 246.62 49.7465 265.843C32.425 284.854 23.7643 308.407 23.7643 336.502C23.7643 351.711 26.4047 365.441 31.6857 377.693C37.1779 389.734 44.6768 400.401 54.1825 409.696C63.6882 418.99 74.7782 427.017 87.4525 433.777C100.338 440.325 114.068 445.712 128.644 449.937C143.219 454.161 158.428 457.33 174.271 459.442C190.114 461.343 205.851 462.294 221.483 462.294C231.622 462.294 241.445 461.977 250.951 461.343C260.456 460.499 269.645 459.337 278.517 457.858C305.133 453.633 328.475 447.507 348.542 439.48C368.821 431.242 386.248 422.37 400.824 412.864C415.61 403.147 427.862 393.325 437.579 383.397C447.296 373.257 455.006 364.068 460.71 355.83C466.624 347.381 470.744 340.515 473.067 335.234C475.602 329.954 476.869 327.207 476.869 326.996C477.714 324.461 479.087 322.56 480.989 321.293C483.101 319.814 485.425 319.075 487.959 319.075C491.339 319.075 494.191 320.237 496.515 322.56C498.838 324.884 500 327.63 500 330.798C500 331.643 499.789 332.911 499.366 334.601ZM279.785 215.779C279.785 214.09 278.411 212.611 275.665 211.343C272.919 210.076 269.328 209.125 264.892 208.492C260.668 207.647 255.809 207.119 250.317 206.907C244.825 206.485 239.227 206.274 233.523 206.274C221.06 206.274 209.231 206.696 198.035 207.541C186.84 208.175 174.06 209.865 159.696 212.611C170.68 216.624 183.249 219.899 197.402 222.433C211.766 224.757 226.236 225.919 240.811 225.919C254.119 225.919 263.942 224.863 270.279 222.75C276.616 220.638 279.785 218.314 279.785 215.779Z" fill="#F8F8F2"/>
</svg>
