<svg width="1024" height="1024" viewBox="0 0 1024 1024" fill="none" xmlns="http://www.w3.org/2000/svg">
<rect width="1024" height="1024" rx="512" fill="#282A36"/>
<path d="M703.766 582.812C703.603 583.464 702.464 586.23 700.348 591.113C698.232 595.996 694.651 602.018 689.605 609.18C684.723 616.341 678.212 624.235 670.074 632.861C661.936 641.488 651.682 649.951 639.312 658.252C626.943 666.39 612.294 673.877 595.367 680.713C578.44 687.386 558.827 692.513 536.529 696.094C521.555 698.535 505.849 699.756 489.41 699.756C475.738 699.756 461.985 698.779 448.15 696.826C434.479 695.036 421.295 692.106 408.6 688.037C396.067 684.131 384.348 679.085 373.443 672.9C362.538 666.715 353.017 659.391 344.879 650.928C336.904 642.464 330.556 632.78 325.836 621.875C321.279 610.807 319 598.519 319 585.01C319 561.084 325.592 540.495 338.775 523.242C352.122 505.99 371.816 492.562 397.857 482.959C388.58 474.333 381.663 464.811 377.105 454.395C372.548 443.978 370.27 433.154 370.27 421.924C370.27 407.926 373.443 394.987 379.791 383.105C386.301 371.224 395.253 360.97 406.646 352.344C418.04 343.717 431.549 337.044 447.174 332.324C462.962 327.441 480.214 325 498.932 325C517.812 325 534.251 326.79 548.248 330.371C562.408 333.952 574.452 338.428 584.381 343.799C594.472 349.17 602.691 355.029 609.039 361.377C615.549 367.725 620.676 373.665 624.42 379.199C628.163 384.733 630.768 389.453 632.232 393.359C633.697 397.103 634.511 399.219 634.674 399.707C634.837 400.358 634.918 401.253 634.918 402.393C634.918 404.671 634.023 406.787 632.232 408.74C630.605 410.531 628.408 411.426 625.641 411.426C623.688 411.426 621.897 410.856 620.27 409.717C618.805 408.415 617.747 406.706 617.096 404.59C617.096 404.264 616.445 402.555 615.143 399.463C613.84 396.208 611.562 392.301 608.307 387.744C605.051 383.187 600.576 378.385 594.879 373.34C589.345 368.132 582.184 363.33 573.395 358.936C564.605 354.378 554.107 350.635 541.9 347.705C529.693 344.775 515.37 343.311 498.932 343.311C480.051 343.311 463.613 345.671 449.615 350.391C435.781 355.111 424.306 361.296 415.191 368.945C406.24 376.432 399.566 384.814 395.172 394.092C390.777 403.369 388.58 412.484 388.58 421.436C388.58 432.015 391.184 442.106 396.393 451.709C401.601 461.312 409.088 469.531 418.854 476.367C427.643 474.089 436.269 472.298 444.732 470.996C453.196 469.694 461.171 468.717 468.658 468.066C476.145 467.253 482.9 466.764 488.922 466.602C495.107 466.276 500.152 466.113 504.059 466.113C511.22 466.113 517.812 466.683 523.834 467.822C529.856 468.799 534.983 470.345 539.215 472.461C543.609 474.414 547.027 477.018 549.469 480.273C551.91 483.366 553.131 486.947 553.131 491.016C553.131 495.085 551.91 498.747 549.469 502.002C547.027 505.257 543.609 508.024 539.215 510.303C534.983 512.581 529.856 514.372 523.834 515.674C517.812 516.813 511.22 517.383 504.059 517.383C496.246 517.383 488.352 516.895 480.377 515.918C472.402 514.941 464.589 513.558 456.939 511.768C449.452 509.977 442.21 507.78 435.211 505.176C428.212 502.409 421.865 499.316 416.168 495.898C390.289 503.711 370.676 515.023 357.33 529.834C343.984 544.482 337.311 562.63 337.311 584.277C337.311 595.996 339.345 606.576 343.414 616.016C347.646 625.293 353.424 633.512 360.748 640.674C368.072 647.835 376.617 654.02 386.383 659.229C396.311 664.274 406.891 668.424 418.121 671.68C429.352 674.935 441.07 677.376 453.277 679.004C465.484 680.469 477.61 681.201 489.654 681.201C497.467 681.201 505.035 680.957 512.359 680.469C519.684 679.818 526.764 678.923 533.6 677.783C554.107 674.528 572.092 669.808 587.555 663.623C603.18 657.275 616.607 650.439 627.838 643.115C639.231 635.628 648.671 628.06 656.158 620.41C663.645 612.598 669.586 605.518 673.98 599.17C678.538 592.66 681.712 587.37 683.502 583.301C685.455 579.232 686.432 577.116 686.432 576.953C687.083 575 688.141 573.535 689.605 572.559C691.233 571.419 693.023 570.85 694.977 570.85C697.581 570.85 699.778 571.745 701.568 573.535C703.359 575.326 704.254 577.441 704.254 579.883C704.254 580.534 704.091 581.51 703.766 582.812ZM534.576 491.26C534.576 489.958 533.518 488.818 531.402 487.842C529.286 486.865 526.52 486.133 523.102 485.645C519.846 484.993 516.103 484.587 511.871 484.424C507.639 484.098 503.326 483.936 498.932 483.936C489.329 483.936 480.214 484.261 471.588 484.912C462.962 485.4 453.115 486.702 442.047 488.818C450.51 491.911 460.195 494.434 471.1 496.387C482.167 498.177 493.316 499.072 504.547 499.072C514.801 499.072 522.369 498.258 527.252 496.631C532.135 495.003 534.576 493.213 534.576 491.26Z" fill="#F8F8F2"/>
</svg>
